<svg width="161" height="69" viewBox="0 0 161 69" fill="none" xmlns="http://www.w3.org/2000/svg">
  <path
    d="M17.2667 9.98433V17.0274C15.2139 18.6424 12.6908 19.5386 10.0828 19.5791C8.77676 19.6055 7.47848 19.3717 6.263 18.8914C5.04752 18.4111 3.93894 17.6938 3.00136 16.7809C2.06378 15.868 1.31579 14.7776 0.800627 13.5728C0.285463 12.3681 0.0133438 11.0727 0 9.76175C0 4.30058 4.50676 0 10.1937 0C12.8105 0.00462468 15.3392 0.949288 17.3221 2.66302L16.0549 4.32442C14.4372 2.88768 12.3538 2.09086 10.1937 2.08272C9.17064 2.06271 8.15373 2.24571 7.20135 2.62119C6.24896 2.99668 5.37985 3.55727 4.64391 4.27078C3.90796 4.98428 3.31969 5.83665 2.91285 6.77895C2.50602 7.72124 2.28864 8.73491 2.27318 9.76175C2.28761 10.7938 2.505 11.8128 2.91287 12.7603C3.32074 13.7079 3.91106 14.5652 4.64994 15.2831C5.38882 16.001 6.2617 16.5654 7.21849 16.9439C8.17528 17.3224 9.19712 17.5074 10.2254 17.4885C12.0413 17.4551 13.8071 16.8855 15.3024 15.8509V9.98433H17.2667Z"
    fill="#DED8CA"/>
  <path
    d="M43.9508 11.4788C43.9508 16.5266 40.9173 19.5792 35.8561 19.5792C30.7949 19.5792 27.7217 16.5266 27.7217 11.4788V0.0556641H29.9316V11.4788C29.9316 15.2547 32.1968 17.4408 35.8719 17.4408C39.547 17.4408 41.7569 15.2547 41.7569 11.4788V0.0556641H43.9667L43.9508 11.4788Z"
    fill="#DED8CA"/>
  <path
    d="M62.7066 0.0556641C68.346 0.0556641 72.6547 4.24495 72.6547 9.76177C72.6547 15.2786 68.3143 19.4679 62.6274 19.4679H54.889V0.0556641H62.7066ZM57.0989 17.3613H62.7383C63.7424 17.387 64.7415 17.2095 65.6758 16.8395C66.6102 16.4694 67.4608 15.9144 68.177 15.2075C68.8932 14.5006 69.4602 13.6563 69.8444 12.7248C70.2286 11.7933 70.4221 10.7937 70.4132 9.78562C70.4179 8.77048 70.2189 7.76478 69.828 6.82852C69.4371 5.89225 68.8623 5.04459 68.1379 4.33611C67.4135 3.62762 66.5543 3.07282 65.6116 2.7048C64.669 2.33677 63.6621 2.16306 62.6511 2.19403H57.1068L57.0989 17.3613Z"
    fill="#DED8CA"/>
  <path
    d="M83.4266 14.5552L81.2723 19.4679H78.8961L87.6007 0.0556641H89.8898L98.539 19.4679H96.1628L94.0005 14.5552H83.4266ZM88.7096 2.57559L84.4009 12.4248H93.1134L88.7096 2.57559Z"
    fill="#DED8CA"/>
  <path
    d="M122.348 11.4788C122.348 16.5266 119.314 19.5792 114.253 19.5792C109.192 19.5792 106.135 16.5266 106.135 11.4788V0.0556641H108.345V11.4788C108.345 15.2547 110.61 17.4408 114.285 17.4408C117.96 17.4408 120.17 15.2547 120.17 11.4788V0.0556641H122.38L122.348 11.4788Z"
    fill="#DED8CA"/>
  <path
    d="M141.935 13.2833C141.523 13.2833 141.08 13.339 140.636 13.339H135.496V19.4679H133.286V0.0556641H140.636C145.476 0.0556641 148.264 2.44046 148.264 6.5741C148.264 9.75382 146.719 11.9478 143.923 12.8699L148.454 19.4679H145.943L141.935 13.2833ZM140.636 11.2006C144.145 11.2006 146.133 9.65048 146.133 6.62974C146.133 3.60901 144.153 2.19403 140.636 2.19403H135.496V11.2006H140.636Z"
    fill="#DED8CA"/>
  <path d="M158.79 19.4679V0.0556641H161V19.4679H158.79Z" fill="#DED8CA"/>
  <path d="M35.5551 44.5162V46.6227H24.8624V27.1787H27.0722V44.5162H35.5551Z" fill="#DED8CA"/>
  <path
    d="M63.0947 36.8849C63.021 39.5311 61.9217 42.0441 60.0307 43.8897C58.1397 45.7352 55.606 46.7678 52.9683 46.7678C50.3307 46.7678 47.797 45.7352 45.906 43.8897C44.015 42.0441 42.9157 39.5311 42.842 36.8849C42.842 31.3919 47.325 27.1231 52.9881 27.1231C54.2929 27.0883 55.5916 27.3141 56.8086 27.7876C58.0256 28.2611 59.1366 28.9727 60.0771 29.8811C61.0175 30.7895 61.7686 31.8764 62.2867 33.0788C62.8047 34.2812 63.0794 35.575 63.0947 36.8849ZM45.0835 36.8849C45.0347 38.4552 45.4534 40.0045 46.2862 41.3348C47.119 42.6651 48.328 43.716 49.7588 44.3534C51.1896 44.9907 52.7773 45.1855 54.3189 44.9129C55.8605 44.6402 57.2862 43.9125 58.4138 42.8227C59.5413 41.7329 60.3196 40.3305 60.6492 38.7947C60.9787 37.2588 60.8446 35.6592 60.2639 34.2002C59.6833 32.7412 58.6824 31.489 57.3893 30.6037C56.0961 29.7183 54.5693 29.2399 53.004 29.2297C50.9436 29.1956 48.9536 29.9818 47.4693 31.4164C45.985 32.851 45.1272 34.8172 45.0835 36.8849Z"
    fill="#DED8CA"/>
  <path
    d="M80.4723 27.1787C86.1037 27.1787 90.4204 31.368 90.4204 36.8848C90.4204 42.4016 86.08 46.5909 80.3851 46.5909H72.6547V27.1787H80.4723ZM74.8645 44.5162H80.496C82.5 44.5056 84.4178 43.6965 85.8274 42.2669C87.2371 40.8372 88.0231 38.9041 88.0126 36.8928C88.0021 34.8815 87.1959 32.9567 85.7714 31.542C84.3469 30.1272 82.4208 29.3383 80.4168 29.3489H74.8725L74.8645 44.5162Z"
    fill="#DED8CA"/>
  <path
    d="M114.95 37.1074V44.1505C112.897 45.7655 110.374 46.6617 107.766 46.7022C106.46 46.7285 105.162 46.4948 103.947 46.0145C102.731 45.5342 101.622 44.8169 100.685 43.904C99.7473 42.9911 98.9993 41.9007 98.4842 40.6959C97.969 39.4911 97.6969 38.1958 97.6835 36.8848C97.6835 31.4236 102.182 27.123 107.877 27.123C110.494 27.1277 113.023 28.0723 115.006 29.7861L113.73 31.4475C112.116 30.0106 110.035 29.2137 107.877 29.2058C106.85 29.1726 105.827 29.347 104.868 29.7186C103.91 30.0902 103.035 30.6514 102.297 31.3688C101.559 32.0863 100.972 32.9454 100.571 33.895C100.17 34.8446 99.9638 35.8654 99.9638 36.8967C99.9638 37.9281 100.17 38.9489 100.571 39.8985C100.972 40.8481 101.559 41.7072 102.297 42.4246C103.035 43.142 103.91 43.7032 104.868 44.0748C105.827 44.4464 106.85 44.6208 107.877 44.5877C109.706 44.554 111.485 43.9757 112.986 42.9263V37.1074H114.95Z"
    fill="#DED8CA"/>
  <path
    d="M128.043 29.3171V35.6765H137.817V37.8069H128.043V44.5162H139.314V46.6227H125.849V27.1787H138.965V29.3171H128.043Z"
    fill="#DED8CA"/>
  <path
    d="M32.1097 68.8967H29.3058V68.7377C30.0266 68.7377 29.686 67.8394 29.5593 67.5374L29.2108 66.6629H26.5178C26.3673 67.1002 25.7891 68.8013 27.4049 68.7377V68.8967H24.8624V68.7377C25.2109 68.7377 25.4802 68.7377 26.4465 66.1939L28.3395 61.2097H28.5138C30.5097 65.9793 31.2384 67.8792 31.2384 67.8792C31.5949 68.7536 31.8483 68.6741 32.1414 68.7218L32.1097 68.8967ZM29.1553 66.5119L27.8089 63.1096L26.5574 66.5119H29.1553Z"
    fill="#DED8CA"/>
  <path
    d="M45.8914 68.7377V68.8967H42.8657V68.7377C43.3172 68.7377 43.6578 68.4197 43.6578 67.601V61.6946L40.8935 69H40.7351L37.6936 62.3862V66.1621C37.6936 66.7981 37.7808 68.7377 39.1352 68.7377V68.8967H35.967V68.7377C37.4481 68.7377 37.5511 66.7822 37.5511 66.1621V62.1318C37.4404 61.9031 37.2666 61.7111 37.0504 61.5787C36.8342 61.4462 36.5846 61.3788 36.3313 61.3846V61.2097H38.7867L41.5034 67.0604L43.6419 61.2097H45.8201V61.3687C45.3528 61.3687 44.9805 61.631 44.9805 62.3306V67.5692C44.9805 68.4197 45.4241 68.7377 45.8914 68.7377Z"
    fill="#DED8CA"/>
  <path
    d="M52.4416 68.8967H50.0655V68.8013C50.5328 68.8013 50.6912 68.2449 50.6912 67.5056V62.6167C50.6912 61.9411 50.5407 61.3131 50.0655 61.3131V61.2097H52.4416C53.9545 61.2097 55.3009 61.2097 55.3009 63.0699C55.2908 63.5656 55.0895 64.038 54.7394 64.3879C54.3893 64.7378 53.9177 64.9378 53.4238 64.9459C54.1287 64.9459 55.7999 65.081 55.7999 66.9332C55.7999 68.7854 54.3188 68.8967 52.4416 68.8967ZM52.0219 61.3846V64.93H52.5604C53.1941 64.93 53.9624 64.6995 53.9624 63.0699C53.9624 61.4402 53.0674 61.3846 52.4733 61.3846H52.0219ZM52.5604 65.0969H52.0219V68.7377H52.4733C53.4634 68.7377 54.4059 68.7377 54.4059 66.8935C54.4059 65.1844 53.3367 65.0969 52.5604 65.0969Z"
    fill="#DED8CA"/>
  <path
    d="M65.954 66.5755V68.8967H60.1958V68.7377C60.6552 68.7377 60.8057 68.2608 60.8057 67.5135V62.5532C60.8057 61.8775 60.679 61.3846 60.1958 61.3846V61.2097H65.8431V63.2209H65.6847C65.5025 61.3846 63.0868 61.3687 62.6432 61.3687H62.1522V64.922H62.6987C62.8492 64.922 64.2828 64.922 64.3382 63.8171H64.4966V66.2019H64.3382C64.2511 65.081 62.8333 65.081 62.6987 65.081H62.1522V68.7139H62.5719C63.0551 68.7139 65.455 68.7139 65.8035 66.5517L65.954 66.5755Z"
    fill="#DED8CA"/>
  <path
    d="M77.5575 68.8967H76.6467C74.9754 68.8967 75.1972 68.8967 74.5081 66.5119C74.4176 66.1798 74.2184 65.8879 73.9426 65.6831C73.6668 65.4784 73.3303 65.3727 72.9874 65.3831H72.4726V67.6566C72.4726 68.4118 72.7735 68.7298 73.2646 68.7298V68.8888H70.4291V68.7298C70.8964 68.7298 71.1578 68.4197 71.1578 67.593V62.2908C71.1578 61.6151 70.9122 61.3846 70.4291 61.3846V61.2097H72.8052C74.9675 61.2097 76.3299 61.472 76.3299 63.2924C76.3299 64.6995 75.4824 65.1685 74.2547 65.2718C74.9754 65.2718 75.7754 65.5262 76.3219 67.7043C76.3922 67.9829 76.5491 68.2317 76.7699 68.4147C76.9906 68.5977 77.2638 68.7052 77.5496 68.7218L77.5575 68.8967ZM72.8052 61.3846H72.4726V65.2241H72.8131C73.9616 65.2241 74.8566 65.2241 74.8566 63.3083C74.8566 61.3926 73.922 61.3846 72.8131 61.3846H72.8052Z"
    fill="#DED8CA"/>
  <path
    d="M95.141 65.8441V65.9792C94.5153 65.9792 94.4044 66.1303 94.4044 68.5071C93.5104 68.8283 92.5658 68.9845 91.6164 68.9682C89.2403 68.9682 87.9096 67.2034 87.9096 64.9935C87.9096 62.7836 89.264 61.0189 91.6164 61.0189C92.5719 60.9436 93.5282 61.1538 94.3648 61.623L94.2856 63.4354H93.9846C93.747 61.6786 92.8916 61.1858 91.6085 61.1858C90.3254 61.1858 89.5967 61.9807 89.5967 64.9617C89.5967 67.9427 90.3887 68.7297 91.6085 68.7297C92.8282 68.7297 93.1926 68.4992 93.1926 67.5134C93.1926 65.9236 92.9629 65.9236 92.2896 65.9236V65.7566L95.141 65.8441Z"
    fill="#DED8CA"/>
  <path
    d="M106.333 68.8967H105.422C103.743 68.8967 103.972 68.8967 103.283 66.5119C103.191 66.1791 102.991 65.887 102.713 65.6823C102.436 65.4777 102.099 65.3723 101.755 65.3831H101.248V67.6566C101.248 68.4118 101.549 68.7298 102.04 68.7298V68.8888H99.236V68.7298C99.7033 68.7298 99.9646 68.4197 99.9646 67.593V62.2908C99.9646 61.6151 99.7112 61.3846 99.236 61.3846V61.2097H101.612C103.766 61.2097 105.137 61.472 105.137 63.2924C105.137 64.6995 104.289 65.1685 103.062 65.2718C103.782 65.2718 104.582 65.5262 105.129 67.7043C105.198 67.9835 105.355 68.233 105.576 68.4162C105.797 68.5993 106.07 68.7065 106.356 68.7218L106.333 68.8967ZM101.58 61.3846H101.24V65.2241H101.58C102.729 65.2241 103.616 65.2241 103.616 63.3083C103.616 61.3926 102.689 61.3846 101.588 61.3846H101.58Z"
    fill="#DED8CA"/>
  <path
    d="M113.826 69.0001C111.449 69.0001 110.19 67.283 110.19 65.1128C110.19 62.9427 111.434 61.1382 113.826 61.1382C116.218 61.1382 117.469 62.9745 117.469 65.1128C117.469 67.2512 116.218 69.0001 113.826 69.0001ZM113.826 61.2892C112.534 61.2892 111.742 62.1318 111.742 65.1128C111.742 68.0938 112.534 68.8331 113.826 68.8331C115.117 68.8331 115.893 68.1177 115.893 65.1128C115.893 62.108 115.109 61.2892 113.826 61.2892Z"
    fill="#DED8CA"/>
  <path
    d="M122.475 66.2496V62.3385C122.475 61.639 122.134 61.3846 121.683 61.3846V61.2097H124.772V61.3687C124.304 61.3687 123.821 61.5118 123.821 62.3306V66.3052C123.793 66.5725 123.822 66.8428 123.906 67.0981C123.99 67.3533 124.127 67.5877 124.309 67.7855C124.49 67.9833 124.711 68.1401 124.958 68.2453C125.204 68.3506 125.47 68.4019 125.738 68.3959C126.003 68.3907 126.264 68.3303 126.505 68.2186C126.746 68.1068 126.961 67.9461 127.137 67.7465C127.313 67.547 127.445 67.3131 127.526 67.0595C127.607 66.8059 127.635 66.5383 127.607 66.2734V63.1732C127.607 62.6565 127.607 61.3449 126.221 61.3528V61.2097H129.278V61.3687C127.742 61.3687 127.766 62.6724 127.766 63.1891V66.2893C127.801 66.6499 127.756 67.0138 127.635 67.3552C127.514 67.6966 127.32 68.007 127.066 68.2643C126.812 68.5216 126.504 68.7195 126.165 68.844C125.826 68.9684 125.464 69.0162 125.104 68.9841C124.747 68.9999 124.39 68.9392 124.057 68.806C123.725 68.6729 123.424 68.4703 123.175 68.2117C122.927 67.9532 122.736 67.6445 122.615 67.3062C122.494 66.968 122.446 66.6078 122.475 66.2496Z"
    fill="#DED8CA"/>
  <path
    d="M135.369 67.4102C135.369 68.6821 135.979 68.7377 136.549 68.7377V68.8967H133.326V68.7377C133.825 68.7377 134.039 68.3085 134.039 67.4181V62.5214C134.039 61.8139 133.817 61.3846 133.302 61.3846V61.2097H135.678C137.84 61.2097 139.329 61.5356 139.329 63.4117C139.329 65.2877 137.84 65.6057 135.678 65.6057H135.385L135.369 67.4102ZM135.662 65.4546C136.858 65.4546 137.825 65.399 137.825 63.4276C137.825 61.4561 136.835 61.3846 135.662 61.3846H135.369V65.4546H135.662Z"
    fill="#DED8CA"/>
</svg>
